<svg width="50" height="50" viewBox="0 0 50 50" fill="none" xmlns="http://www.w3.org/2000/svg">
<circle cx="25" cy="25" r="25" fill="#AED3FF"/>
<path d="M43.8202 20C46.438 20 38.7024 29.4474 38.7024 29.4474L37 23.1842C37 23.1842 41.2024 20 43.8202 20Z" fill="#0075FF"/>
<path d="M8.15552 32.3037C5.59468 32.8469 11.2016 22 11.2016 22L14.1665 27.7736C14.1665 27.7736 10.7164 31.7605 8.15552 32.3037Z" fill="#0075FF"/>
<path d="M40 26C40 34.2843 33.2843 38 25 38C16.7157 38 10 34.2843 10 26C10 17.7157 16.7157 11 25 11C33.2843 11 40 17.7157 40 26Z" fill="#0075FF"/>
<path d="M38.5 27.7778C38.5 30.7343 37.1366 32.8299 34.8194 34.2584C32.4269 35.7334 28.9851 36.5 25 36.5C21.0149 36.5 17.5731 35.7334 15.1806 34.2584C12.8634 32.8299 11.5 30.7343 11.5 27.7778C11.5 25.3638 11.6903 23.3857 12.3498 21.8081C12.9749 20.3126 14.0566 19.0943 16.0801 18.2458C17.5521 17.6285 18.843 17.8884 20.2484 18.4464C20.605 18.588 20.9569 18.7439 21.3248 18.9086C21.3585 18.9237 21.3925 18.939 21.4267 18.9543C21.7553 19.1016 22.1029 19.2574 22.4443 19.3969C23.1803 19.6975 24.0642 20 25 20C25.9358 20 26.8197 19.6975 27.5557 19.3969C27.8971 19.2574 28.2447 19.1016 28.5733 18.9543C28.6075 18.939 28.6415 18.9238 28.6752 18.9086C29.0431 18.7439 29.395 18.588 29.7516 18.4464C31.157 17.8884 32.4479 17.6285 33.9199 18.2458C35.9434 19.0943 37.0251 20.3126 37.6502 21.8081C38.3097 23.3857 38.5 25.3638 38.5 27.7778Z" fill="white" stroke="#0075FF" stroke-width="3" stroke-linejoin="round"/>
<circle cx="18" cy="25" r="2" fill="black"/>
<circle cx="32" cy="25" r="2" fill="black"/>
<path d="M25 25C26.6569 25 27.5 26 29 27C29 27 26.3099 29.5 25 29.5C23.6901 29.5 21 27 21 27C22.5 26 23.3431 25 25 25Z" fill="#FF9900"/>
</svg>
